<svg width="55" height="40" viewBox="0 0 55 40" fill="none" xmlns="http://www.w3.org/2000/svg">
<path d="M27.5 39.5312C33.8021 39.5312 38.9583 34.375 38.9583 28.0729C38.9583 21.7708 33.8021 16.6146 27.5 16.6146C21.1979 16.6146 16.0417 21.7708 16.0417 28.0729C16.0417 34.375 21.1979 39.5312 27.5 39.5312ZM27.5 29.2187C26.3542 29.2187 25.2083 28.7604 24.4062 28.0729C23.4896 27.2708 22.9167 26.0104 22.9167 24.6354C22.9167 22.4583 24.4062 20.7396 26.3542 20.1667V19.8229C26.3542 19.25 26.9271 18.6771 27.5 18.6771C28.0729 18.6771 28.6458 19.25 28.6458 19.8229V20.1667C30.5937 20.625 32.0833 22.4583 32.0833 24.6354H29.7917C29.7917 23.375 28.7604 22.3438 27.5 22.3438C26.2396 22.3438 25.2083 23.375 25.2083 24.6354C25.2083 25.8958 26.2396 26.9271 27.5 26.9271C28.6458 26.9271 29.7917 27.3854 30.4792 28.0729C31.3958 28.875 32.0833 30.1354 32.0833 31.5104C32.0833 33.6875 30.5937 35.4062 28.6458 35.9792V36.3229C28.6458 36.8958 28.0729 37.4688 27.5 37.4688C26.9271 37.4688 26.3542 36.8958 26.3542 36.3229V35.9792C24.4062 35.5208 22.9167 33.6875 22.9167 31.5104H25.2083C25.2083 32.7708 26.2396 33.8021 27.5 33.8021C28.7604 33.8021 29.7917 32.7708 29.7917 31.5104C29.7917 30.25 28.7604 29.2187 27.5 29.2187Z" fill="url(#paint0_linear_1_3)"/>
<path d="M46.2917 9.96875C45.375 6.07292 41.9375 3.20833 37.8125 3.20833C35.2917 3.20833 33 4.23958 31.2813 6.07292C29.4479 2.40625 25.6667 0 21.4271 0C15.6979 0 11 4.35417 10.4271 9.96875C10.1979 9.96875 9.85417 9.96875 9.625 9.96875C4.35417 9.96875 0 14.3229 0 19.5937C0 24.8646 4.35417 29.2188 9.625 29.2188H13.75C13.75 28.875 13.75 28.4167 13.75 28.0729C13.75 27.7292 13.75 27.2708 13.75 26.9271C14.3229 19.8229 20.2813 14.3229 27.5 14.3229C34.7188 14.3229 40.6771 19.8229 41.25 26.9271C41.25 27.2708 41.25 27.7292 41.25 28.0729C41.25 28.4167 41.25 28.875 41.25 29.2188H45.375C50.6458 29.2188 55 24.8646 55 19.5937C55 14.5521 51.2188 10.5417 46.2917 9.96875Z" fill="url(#paint1_linear_1_3)"/>
<defs>
<linearGradient id="paint0_linear_1_3" x1="16.0417" y1="16.6146" x2="38.9583" y2="16.6146" gradientUnits="userSpaceOnUse">
<stop offset="0.234375" stop-color="#372274"/>
<stop offset="1" stop-color="#7A62B8"/>
</linearGradient>
<linearGradient id="paint1_linear_1_3" x1="0" y1="0" x2="55" y2="0" gradientUnits="userSpaceOnUse">
<stop offset="0.234375" stop-color="#372274"/>
<stop offset="1" stop-color="#7A62B8"/>
</linearGradient>
</defs>
</svg>
