<svg width="175" height="40" viewBox="0 0 175 40" fill="none" xmlns="http://www.w3.org/2000/svg">
<path d="M27.5 39.5312C33.8021 39.5312 38.9583 34.375 38.9583 28.0729C38.9583 21.7708 33.8021 16.6146 27.5 16.6146C21.1979 16.6146 16.0417 21.7708 16.0417 28.0729C16.0417 34.375 21.1979 39.5312 27.5 39.5312ZM27.5 29.2187C26.3542 29.2187 25.2083 28.7604 24.4062 28.0729C23.4896 27.2708 22.9167 26.0104 22.9167 24.6354C22.9167 22.4583 24.4062 20.7396 26.3542 20.1667V19.8229C26.3542 19.25 26.9271 18.6771 27.5 18.6771C28.0729 18.6771 28.6458 19.25 28.6458 19.8229V20.1667C30.5937 20.625 32.0833 22.4583 32.0833 24.6354H29.7917C29.7917 23.375 28.7604 22.3438 27.5 22.3438C26.2396 22.3438 25.2083 23.375 25.2083 24.6354C25.2083 25.8958 26.2396 26.9271 27.5 26.9271C28.6458 26.9271 29.7917 27.3854 30.4792 28.0729C31.3958 28.875 32.0833 30.1354 32.0833 31.5104C32.0833 33.6875 30.5937 35.4062 28.6458 35.9792V36.3229C28.6458 36.8958 28.0729 37.4688 27.5 37.4688C26.9271 37.4688 26.3542 36.8958 26.3542 36.3229V35.9792C24.4062 35.5208 22.9167 33.6875 22.9167 31.5104H25.2083C25.2083 32.7708 26.2396 33.8021 27.5 33.8021C28.7604 33.8021 29.7917 32.7708 29.7917 31.5104C29.7917 30.25 28.7604 29.2187 27.5 29.2187Z" fill="url(#paint0_linear_1_9)"/>
<path d="M46.2917 9.96875C45.375 6.07292 41.9375 3.20833 37.8125 3.20833C35.2917 3.20833 33 4.23958 31.2813 6.07292C29.4479 2.40625 25.6667 0 21.4271 0C15.6979 0 11 4.35417 10.4271 9.96875C10.1979 9.96875 9.85417 9.96875 9.625 9.96875C4.35417 9.96875 0 14.3229 0 19.5937C0 24.8646 4.35417 29.2188 9.625 29.2188H13.75C13.75 28.875 13.75 28.4167 13.75 28.0729C13.75 27.7292 13.75 27.2708 13.75 26.9271C14.3229 19.8229 20.2813 14.3229 27.5 14.3229C34.7188 14.3229 40.6771 19.8229 41.25 26.9271C41.25 27.2708 41.25 27.7292 41.25 28.0729C41.25 28.4167 41.25 28.875 41.25 29.2188H45.375C50.6458 29.2188 55 24.8646 55 19.5937C55 14.5521 51.2188 10.5417 46.2917 9.96875Z" fill="url(#paint1_linear_1_9)"/>
<path d="M75 14.0974H78.823L81.0351 19.9642L84.233 13.3761L87.479 19.9882L89.7632 14.0974H93.5622L87.8877 27.8266L84.233 20.8057L80.6264 27.8266L75 14.0974ZM105.224 25.9512C104.919 26.368 104.394 26.7406 103.649 27.0692C102.903 27.3979 102.09 27.5622 101.208 27.5622C99.8457 27.5622 98.6635 27.2576 97.6617 26.6485C96.6599 26.0394 95.8944 25.2098 95.3655 24.1599C94.8365 23.11 94.572 21.9438 94.572 20.6615C94.572 19.3791 94.8365 18.213 95.3655 17.163C95.8944 16.1131 96.6599 15.2836 97.6617 14.6744C98.6635 14.0653 99.8457 13.7608 101.208 13.7608C102.122 13.7608 102.927 13.917 103.625 14.2296C104.322 14.5422 104.855 14.9389 105.224 15.4198V14.0493H108.782V27.2736H105.224V25.9512ZM104.382 17.9565C103.725 17.2592 102.843 16.9106 101.737 16.9106C100.615 16.9106 99.7295 17.2592 99.0803 17.9565C98.4311 18.6538 98.1065 19.5554 98.1065 20.6615C98.1065 21.7354 98.4391 22.6251 99.1044 23.3304C99.7696 24.0357 100.647 24.3883 101.737 24.3883C102.859 24.3883 103.745 24.0557 104.394 23.3905C105.043 22.7253 105.368 21.8156 105.368 20.6615C105.368 19.5554 105.039 18.6538 104.382 17.9565ZM112.365 9.09618H115.971V27.2736H112.365V9.09618ZM119.434 9.09618H123.04V27.2736H119.434V9.09618ZM129.857 26.961C128.759 26.5283 127.817 25.7949 127.032 24.761C126.246 23.7271 125.854 22.3766 125.854 20.7095C125.854 19.0425 126.25 17.696 127.044 16.6701C127.837 15.6442 128.787 14.9149 129.893 14.4821C130.999 14.0493 132.049 13.8329 133.043 13.8329C134.197 13.8329 135.295 14.0894 136.337 14.6023C137.379 15.1153 138.232 15.8686 138.898 16.8625C139.563 17.8563 139.911 19.0345 139.944 20.397C139.944 20.8137 139.935 21.1744 139.919 21.479C139.903 21.7835 139.887 21.9759 139.871 22.056H129.436C129.629 22.9857 130.109 23.6189 130.879 23.9555C131.648 24.2921 132.37 24.4604 133.043 24.4604C133.908 24.4604 134.598 24.3042 135.111 23.9916C135.624 23.679 136.064 23.3224 136.433 22.9216L139.222 24.5326C137.715 26.5844 135.656 27.6102 133.043 27.6102C132.017 27.6102 130.955 27.3938 129.857 26.961ZM130.59 17.716C129.965 18.2049 129.612 18.802 129.532 19.5073H136.145C136.096 19.0906 135.936 18.6898 135.664 18.3051C135.391 17.9204 135.026 17.6038 134.57 17.3554C134.113 17.1069 133.596 16.9827 133.019 16.9827C132.025 16.9827 131.215 17.2271 130.59 17.716ZM147.301 22.561C147.301 23.122 147.397 23.5908 147.59 23.9675C147.782 24.3442 148.231 24.5326 148.936 24.5326C149.257 24.5326 149.561 24.5166 149.85 24.4845V27.5141C149.273 27.5782 148.736 27.6102 148.239 27.6102C147.213 27.6102 146.383 27.5261 145.75 27.3578C145.117 27.1895 144.624 26.8649 144.271 26.384C143.919 25.9031 143.742 25.2138 143.742 24.3162V16.9827H142.132V13.8329H143.742V10.2984H147.301V13.8329H149.946V16.9827H147.301V22.561ZM156.919 27.2736H153.312V17.3434H151.821V14.2657H153.312C153.376 12.5505 153.865 11.2441 154.779 10.3465C155.692 9.44883 156.959 9 158.578 9C159.059 9 159.588 9.07213 160.165 9.2164L159.972 12.1258C159.668 12.0296 159.339 11.9815 158.987 11.9815C158.121 11.9815 157.56 12.1979 157.303 12.6307C157.047 13.0635 156.919 13.6085 156.919 14.2657H159.299V17.3434H156.919V27.2736ZM163.651 32.2267L165.935 26.7927L160.261 14.0974H164.421L167.763 22.5129L170.84 14.0974H175L167.618 32.2267H163.651Z" fill="white"/>
<defs>
<linearGradient id="paint0_linear_1_9" x1="16.0417" y1="16.6146" x2="38.9583" y2="16.6146" gradientUnits="userSpaceOnUse">
<stop offset="0.234375" stop-color="#372274"/>
<stop offset="1" stop-color="#7A62B8"/>
</linearGradient>
<linearGradient id="paint1_linear_1_9" x1="0" y1="0" x2="55" y2="0" gradientUnits="userSpaceOnUse">
<stop offset="0.234375" stop-color="#372274"/>
<stop offset="1" stop-color="#7A62B8"/>
</linearGradient>
</defs>
</svg>
